<svg width="626" height="130" viewBox="0 0 626 130" fill="none" xmlns="http://www.w3.org/2000/svg">
<g clip-path="url(#clip0_4506_1217)">
<path d="M612.671 23.6767H607.61C607.279 23.6767 607.061 23.8973 607.061 24.2251V26.2011H607.006C605.74 24.3905 603.539 23.0732 599.964 23.0732C595.453 23.0732 592.152 25.2146 590.776 29.4392C590.116 31.4703 589.84 33.3359 589.84 36.9018C589.84 40.4677 590.116 42.3334 590.776 44.3645C592.152 48.589 595.453 50.7304 599.964 50.7304C603.539 50.7304 605.74 49.4131 607.006 47.6026H607.061V49.5785C607.061 49.9063 607.282 50.1269 607.61 50.1269H612.671C613.003 50.1269 613.221 49.9063 613.221 49.5785V24.2251C613.221 23.8943 613 23.6767 612.671 23.6767ZM606.511 41.8432C605.796 44.0367 604.091 45.2468 601.561 45.2468C599.031 45.2468 597.382 44.0398 596.666 41.8432C596.282 40.6362 596.117 39.3189 596.117 36.9049C596.117 34.4909 596.282 33.1736 596.666 31.9665C597.382 29.77 599.086 28.563 601.561 28.563C604.036 28.563 605.796 29.77 606.511 31.9665C606.895 33.1736 607.061 34.4909 607.061 36.9049C607.061 39.3189 606.895 40.6362 606.511 41.8432ZM624.663 12.8105H619.602C619.27 12.8105 619.052 13.0311 619.052 13.3589V18.1318C619.052 18.4627 619.273 18.6802 619.602 18.6802H624.663C624.994 18.6802 625.212 18.4596 625.212 18.1318V13.3589C625.212 13.0281 624.991 12.8105 624.663 12.8105ZM624.663 23.6767H619.602C619.27 23.6767 619.052 23.8973 619.052 24.2251V49.5785C619.052 49.9063 619.273 50.1269 619.602 50.1269H624.663C624.994 50.1269 625.212 49.9063 625.212 49.5785V24.2251C625.212 23.8943 624.991 23.6767 624.663 23.6767Z" fill="url(#paint0_linear_4506_1217)"/>
<path d="M100.813 91.6475C100.374 91.2095 100.156 90.5539 100.595 90.0055L107.397 82.1232C107.836 81.5748 108.493 81.5748 108.932 82.0129C113.759 85.8453 120.893 89.8952 129.233 89.8952C138.12 89.8952 143.279 85.4072 143.279 79.1669C143.279 73.8027 139.987 70.3011 129.672 68.8766L125.723 68.3283C111.349 66.3584 103.229 59.4625 103.229 47.0922C103.229 33.6281 113.105 24.6521 128.468 24.6521C137.794 24.6521 146.684 27.6084 152.608 32.0964C153.157 32.5345 153.265 32.9725 152.826 33.6281L147.559 41.728C147.12 42.2763 146.571 42.3836 146.024 42.0558C139.99 38.1161 134.392 36.2535 128.14 36.2535C120.567 36.2535 116.4 40.4137 116.4 46.216C116.4 51.3596 120.021 54.8642 130.117 56.2887L134.066 56.8371C148.441 58.8069 156.342 65.5956 156.342 78.401C156.342 91.2064 146.795 101.5 128.25 101.5C117.278 101.5 106.635 97.122 100.819 91.6475H100.813Z" fill="#101820"/>
<path d="M198.031 100.296C197.374 100.296 196.934 99.8575 196.934 99.2019V68.7692C196.934 61.9836 193.532 57.275 186.948 57.275C180.364 57.275 176.855 61.9836 176.855 68.7692V99.2019C176.855 99.8575 176.415 100.296 175.758 100.296H165.665C165.007 100.296 164.568 99.8575 164.568 99.2019V26.9526C164.568 26.297 165.007 25.8589 165.665 25.8589H175.758C176.415 25.8589 176.855 26.297 176.855 26.9526V52.4592H176.965C179.268 49.1751 183.877 46.3291 190.9 46.3291C202.201 46.3291 209.224 54.6496 209.224 65.9232V99.2019C209.224 99.8575 208.785 100.296 208.127 100.296H198.034H198.031Z" fill="#101820"/>
<path d="M219.204 86.9388C217.997 83.2167 217.447 79.7151 217.447 73.9129C217.447 68.1106 217.997 64.6091 219.204 60.8869C222.167 51.6903 230.286 46.3262 241.04 46.3262C251.794 46.3262 259.803 51.6903 262.766 60.8869C263.973 64.6091 264.522 68.1106 264.522 73.9129C264.522 79.7151 263.973 83.2167 262.766 86.9388C259.803 96.1354 251.683 101.5 241.04 101.5C230.397 101.5 222.167 96.1354 219.204 86.9388ZM250.916 83.6548C251.794 80.9191 252.012 78.4009 252.012 73.9129C252.012 69.4249 251.794 67.017 250.916 64.171C249.38 59.7933 245.978 57.2751 241.04 57.2751C236.102 57.2751 232.592 59.7933 231.054 64.171C230.176 67.017 229.958 69.4249 229.958 73.9129C229.958 78.4009 230.176 80.9191 231.054 83.6548C232.589 88.0325 236.102 90.5507 241.04 90.5507C245.978 90.5507 249.38 88.0325 250.916 83.6548Z" fill="#101820"/>
<path d="M274.395 120C273.738 120 273.299 119.562 273.299 118.906V48.6268C273.299 47.9713 273.738 47.5332 274.395 47.5332H284.489C285.146 47.5332 285.585 47.9713 285.585 48.6268V52.5665H285.695C288.22 48.9546 292.608 46.3262 299.741 46.3262C308.739 46.3262 315.322 50.5967 318.065 59.0243C319.382 63.0743 319.929 66.7964 319.929 73.9129C319.929 81.0294 319.379 84.7515 318.065 88.8014C315.322 97.2291 308.739 101.5 299.741 101.5C292.608 101.5 288.22 98.8711 285.695 95.2593H285.585V118.903C285.585 119.559 285.146 119.997 284.489 119.997H274.395V120ZM306.325 83.7651C307.093 81.3572 307.421 78.7287 307.421 73.9129C307.421 69.0971 307.093 66.4686 306.325 64.0607C304.897 59.683 301.498 57.2751 296.56 57.2751C291.622 57.2751 288.112 59.683 286.684 64.0607C285.917 66.4686 285.588 69.0971 285.588 73.9129C285.588 78.7287 285.917 81.3572 286.684 83.7651C288.112 88.1428 291.512 90.5507 296.56 90.5507C301.608 90.5507 304.9 88.1428 306.325 83.7651Z" fill="#101820"/>
<path d="M325.53 93.1792C325.091 92.7411 325.091 92.0855 325.53 91.6474L331.785 85.0793C332.224 84.6412 332.881 84.6412 333.32 85.0793C337.162 88.5809 343.306 91.0991 348.791 91.0991C355.264 91.0991 358.556 88.4706 358.556 84.8587C358.556 81.685 356.692 79.7151 349.777 79.0565L344.071 78.5081C333.317 77.4145 327.833 71.94 327.833 62.964C327.833 52.784 335.184 46.3262 348.352 46.3262C356.581 46.3262 363.494 49.0619 368.214 52.784C368.763 53.2221 368.763 53.8777 368.432 54.3158L363.055 60.7736C362.616 61.3219 362.066 61.3219 361.519 60.9911C358.227 58.6935 352.961 56.6134 347.695 56.6134C342.428 56.6134 339.683 58.911 339.683 62.0878C339.683 65.2647 341.547 67.0139 348.352 67.6695L354.057 68.2179C365.14 69.3115 370.406 75.0066 370.406 83.6517C370.406 94.1595 362.726 101.497 348.241 101.497C337.377 101.497 329.918 97.226 325.527 93.1761L325.53 93.1792Z" fill="#101820"/>
<path d="M377.976 86.8316C376.879 83.4373 376.112 79.3873 376.112 73.9129C376.112 68.4384 376.769 64.2782 377.868 60.8869C380.831 51.6903 388.951 46.3262 399.483 46.3262C410.016 46.3262 418.246 51.9078 421.209 60.8869C422.416 64.6091 422.966 68.2209 422.966 76.7589C422.966 77.4145 422.527 77.8525 421.759 77.8525H389.169C388.729 77.8525 388.511 78.07 388.511 78.5081C388.511 80.0399 388.84 81.3541 389.279 82.558C391.036 87.7016 395.206 90.5476 401.129 90.5476C407.053 90.5476 410.894 88.3572 413.529 85.5113C414.079 84.9629 414.625 84.8557 415.175 85.2937L421.648 90.9857C422.198 91.4238 422.198 91.9722 421.759 92.5175C417.26 97.7713 409.798 101.493 400.033 101.493C388.84 101.493 380.939 96.019 377.979 86.8255L377.976 86.8316ZM409.906 63.5154C408.478 59.2449 404.529 56.7298 399.591 56.7298C394.653 56.7298 390.593 59.248 389.166 63.5154C388.726 64.8296 388.508 66.1439 388.508 68.0034C388.508 68.4415 388.726 68.659 389.166 68.659H409.906C410.345 68.659 410.563 68.4415 410.563 68.0034C410.563 66.1408 410.345 64.8296 409.906 63.5154Z" fill="#101820"/>
<path d="M465.211 100.296C464.553 100.296 464.114 99.8574 464.114 99.2018V68.7692C464.114 61.9835 460.712 57.2749 454.128 57.2749C447.544 57.2749 444.034 61.9835 444.034 68.7692V99.2018C444.034 99.8574 443.595 100.296 442.938 100.296H432.844C432.187 100.296 431.748 99.8574 431.748 99.2018V48.6267C431.748 47.9711 432.187 47.5331 432.844 47.5331H442.938C443.595 47.5331 444.034 47.9711 444.034 48.6267V52.4591H444.145C446.448 49.1751 451.057 46.3291 458.08 46.3291C469.384 46.3291 476.404 54.6495 476.404 65.9232V99.2018C476.404 99.8574 475.964 100.296 475.307 100.296H465.214H465.211Z" fill="#101820"/>
<path d="M484.298 93.1792C483.859 92.7411 483.859 92.0855 484.298 91.6474L490.554 85.0793C490.993 84.6412 491.65 84.6412 492.089 85.0793C495.931 88.5809 502.075 91.0991 507.56 91.0991C514.033 91.0991 517.325 88.4706 517.325 84.8587C517.325 81.685 515.461 79.7151 508.545 79.0565L502.84 78.5081C492.086 77.4145 486.602 71.94 486.602 62.964C486.602 52.784 493.953 46.3262 507.121 46.3262C515.35 46.3262 522.263 49.0619 526.982 52.784C527.532 53.2221 527.532 53.8777 527.2 54.3158L521.823 60.7736C521.384 61.3219 520.835 61.3219 520.288 60.9911C516.996 58.6935 511.73 56.6134 506.463 56.6134C501.197 56.6134 498.455 58.911 498.455 62.0878C498.455 65.2647 500.319 67.0139 507.124 67.6695L512.829 68.2179C523.912 69.3115 529.178 75.0066 529.178 83.6517C529.178 94.1595 521.498 101.497 507.013 101.497C496.149 101.497 488.69 97.226 484.298 93.1761V93.1792Z" fill="#101820"/>
<path d="M536.748 86.8316C535.651 83.4373 534.884 79.3873 534.884 73.9129C534.884 68.4384 535.541 64.2782 536.64 60.8869C539.603 51.6903 547.723 46.3262 558.255 46.3262C568.788 46.3262 577.018 51.9078 579.981 60.8869C581.188 64.6091 581.738 68.2209 581.738 76.7589C581.738 77.4145 581.298 77.8525 580.531 77.8525H547.941C547.501 77.8525 547.283 78.07 547.283 78.5081C547.283 80.0399 547.612 81.3541 548.051 82.558C549.808 87.7016 553.978 90.5476 559.901 90.5476C565.825 90.5476 569.666 88.3572 572.301 85.5113C572.851 84.9629 573.397 84.8557 573.947 85.2937L580.42 90.9857C580.97 91.4238 580.97 91.9722 580.531 92.5175C576.032 97.7713 568.57 101.493 558.805 101.493C547.612 101.493 539.711 96.019 536.751 86.8255L536.748 86.8316ZM568.678 63.5154C567.25 59.2449 563.301 56.7298 558.363 56.7298C553.425 56.7298 549.365 59.248 547.937 63.5154C547.498 64.8296 547.28 66.1439 547.28 68.0034C547.28 68.4415 547.498 68.659 547.937 68.659H568.678C569.117 68.659 569.335 68.4415 569.335 68.0034C569.335 66.1408 569.117 64.8296 568.678 63.5154Z" fill="#101820"/>
<path d="M7.56347 57.7859L43.7478 104.019C46.8651 101.588 48.8673 97.8023 48.8673 93.5493C48.8673 90.4671 47.8139 87.6308 46.0488 85.3783L35.1168 71.4115H35.1199L18.2367 49.8391C15.1872 46.0471 13.3637 41.2348 13.3637 35.9984C13.3637 23.774 23.2977 13.8636 35.5511 13.8636C47.8046 13.8636 57.7386 23.774 57.7386 35.9984C57.7386 39.8181 56.7683 43.4104 55.0618 46.5449L63.699 57.58C68.3102 51.6061 71.0517 44.1203 71.0517 35.9984C71.0548 16.4357 55.1604 0.579102 35.5542 0.579102C15.9481 0.579102 0.0505981 16.4357 0.0505981 35.9984C0.0505981 44.2156 2.85676 51.7782 7.56347 57.7859ZM63.5419 71.7588L27.3606 25.5287C24.2433 27.9594 22.2411 31.7454 22.2411 35.9984C22.2411 39.0806 23.2946 41.917 25.0596 44.1695L53.0504 79.9329C55.9921 83.6881 57.7448 88.4174 57.7448 93.5524C57.7448 105.777 47.8108 115.687 35.5573 115.687C23.3038 115.687 13.3699 105.777 13.3699 93.5524C13.3699 89.7327 14.3401 86.1434 16.0466 83.0059L7.40945 71.9677C2.79207 77.9447 0.0505981 85.4274 0.0505981 93.5524C0.0505981 113.112 15.945 128.969 35.5542 128.969C55.1635 128.969 71.0579 113.112 71.0579 93.5493C71.0579 85.3322 68.2517 77.7695 63.545 71.7588H63.5419Z" fill="url(#paint1_linear_4506_1217)"/>
</g>
<path d="M599.214 92.5569H596.441V101.368H593.667V92.5569H590.894V90.0847H599.214V92.5569Z" fill="#101820"/>
<path d="M611.352 101.368H608.579V95.964L606.979 98.7532H605.204L603.603 95.964V101.368H600.83V90.0847H603.556L606.091 95.0608L608.627 90.0847H611.352V101.368Z" fill="#101820"/>
<defs>
<linearGradient id="paint0_linear_4506_1217" x1="589.84" y1="12.8105" x2="627.202" y2="15.2158" gradientUnits="userSpaceOnUse">
<stop stop-color="#D733E1"/>
<stop offset="0.75" stop-color="#6D39F7"/>
<stop offset="1" stop-color="#2757FF"/>
</linearGradient>
<linearGradient id="paint1_linear_4506_1217" x1="0.0505981" y1="0.579102" x2="75.2528" y2="3.44949" gradientUnits="userSpaceOnUse">
<stop stop-color="#D733E1"/>
<stop offset="0.75" stop-color="#6D39F7"/>
<stop offset="1" stop-color="#2757FF"/>
</linearGradient>
<clipPath id="clip0_4506_1217">
<rect width="625.899" height="128.389" fill="white" transform="translate(0.0505981 0.773926)"/>
</clipPath>
</defs>
</svg>
