<svg version="1.1" id="Layer_1" xmlns:x="ns_extend;" xmlns:i="ns_ai;" xmlns:graph="ns_graphs;" xmlns="http://www.w3.org/2000/svg" xmlns:xlink="http://www.w3.org/1999/xlink" x="0px" y="0px" viewBox="0 0 575.1 85" style="enable-background:new 0 0 575.1 85;" xml:space="preserve">
 <metadata>
  <sfw xmlns="ns_sfw;">
   <slices>
   </slices>
   <sliceSourceBounds bottomLeftOrigin="true" height="85" width="575.1" x="-292.7" y="-212.2">
   </sliceSourceBounds>
  </sfw>
 </metadata>
 <g id="Kohl_s_Logo_-_Black">
  <path id="Path_30" d="M0,2.1h39.5v26.4h0.3L69.9,2.1h44.3L77.8,34.4l42,44.5H70L39.8,47.5h-0.3v31.4H0V2.1z">
  </path>
  <path id="Path_31" d="M177.1,0c44.9,0,57.1,9.3,57.1,40.7S222,81.3,177.1,81.3s-57.2-9.1-57.2-40.7S132.2,0,177.1,0z M177.1,65.6
		c17.6,0,16.4-19.3,16.4-25.6s0.2-24-16.4-24s-16.4,17.6-16.4,24S159.5,65.6,177.1,65.6z">
  </path>
  <path id="Path_32" d="M319.3,50.1v29.3h40.5V2.6h-40.5V29h-29V2.6h-40.7v76.8h40.5V50.1H319.3z">
  </path>
  <path id="Path_33" d="M379.1,2.6h41.6v58.6h37.5c2.8-0.2,5.4-1.6,7-3.9v22.2h-86V2.6z">
  </path>
  <path id="Path_34" d="M561.9,28.1c-6.6-5.7-15.1-9-23.8-9.1c-7.9-0.2-14.9,2.6-14.9,7.1s5.3,5.2,23.8,9
		c15.2,3.2,25.3,10.8,25.3,24.9S545.2,85,521,85c-14.3,0.3-28.6-2.5-41.7-8.2V55.4c7.3,7.4,23.4,11.4,35.8,11.4
		c6.8,0,10.3-1.1,10.3-6.4s-4.3-6.4-17.3-8.7c-24.6-4.4-32.9-11.4-32.9-23.2c0-17,21.5-27,48-27c14.3,0,27.3,0.5,38.8,5.8
		L561.9,28.1z">
  </path>
  <path id="Path_35" d="M442.1,34l2.9-4.9c-8.5-4.1-11.1-14.7-6.7-20.8c5.4-6.6,15.1-7.6,21.7-2.3c1.1,0.9,2,1.9,2.8,3
		c4.2,5.6,3.1,13.5-2.3,17.9C454.6,29.7,448.4,32.1,442.1,34z">
  </path>
  <path id="Path_36" d="M575.1,9.9c0,2.8-2.3,5.1-5.1,5.1c-2.8,0-5.1-2.3-5.1-5.1s2.3-5.1,5.1-5.1l0,0C572.9,4.8,575.1,7.1,575.1,9.9
		z M565.7,9.9c0,2.4,1.9,4.3,4.3,4.3c2.4,0,4.3-1.9,4.3-4.3s-1.9-4.3-4.3-4.3l0,0C567.7,5.5,565.7,7.5,565.7,9.9
		C565.7,9.9,565.7,9.9,565.7,9.9L565.7,9.9z M568.9,12.8h-0.8V7h2.3c1.4,0,2,0.6,2,1.7c0.1,0.8-0.5,1.6-1.4,1.7c-0.1,0-0.1,0-0.2,0
		l1.8,2.6h-0.9l-1.7-2.6h-1.2L568.9,12.8z M569.8,9.6c0.9,0,1.8,0,1.8-1.1s-0.6-1.1-1.4-1.1h-1.4v2.1L569.8,9.6z">
  </path>
 </g>
</svg>