<svg version="1.1" id="Layer_1" xmlns="http://www.w3.org/2000/svg" xmlns:xlink="http://www.w3.org/1999/xlink" x="0px" y="0px" viewBox="0 0 72.5 76.6" style="enable-background:new 0 0 72.5 76.6;" xml:space="preserve">
 <style type="text/css">
  .st0{fill-rule:evenodd;clip-rule:evenodd;fill:#F3B53B;}
 </style>
 <g>
  <path class="st0" d="M34.1,25.8c1.8,0,3.3-1,3.5-2.1l1.7-20.1c0-2-2.3-3.6-5.2-3.6c-2.9,0-5.2,1.6-5.2,3.6l1.8,20.1
		C30.9,24.9,32.3,25.8,34.1,25.8 M23.3,32.1c0.9-1.6,0.8-3.3-0.1-4.1L6.7,16.4c-1.7-1-4.3,0.2-5.7,2.7c-1.5,2.5-1.2,5.4,0.5,6.3
		L19.7,34C20.8,34.4,22.4,33.6,23.3,32.1 M44.9,32c0.9,1.6,2.4,2.4,3.6,1.9l18.2-8.5c1.7-1,2-3.8,0.5-6.3c-1.5-2.5-4-3.7-5.7-2.7
		L45.1,28C44.1,28.8,44.1,30.5,44.9,32 M34.1,50.8c1.8,0,3.3,1,3.5,2.1L39.3,73c0,2-2.3,3.6-5.2,3.6c-2.9,0-5.2-1.6-5.2-3.6
		l1.8-20.1C30.9,51.7,32.3,50.8,34.1,50.8 M44.9,44.6c0.9-1.6,2.4-2.4,3.6-2l18.2,8.5c1.7,1,2,3.8,0.5,6.3c-1.5,2.5-4,3.7-5.7,2.7
		L45.1,48.6C44.1,47.9,44.1,46.1,44.9,44.6 M23.3,44.6c0.9,1.5,0.8,3.3-0.1,4.1L6.7,60.2C5,61.1,2.4,60,1,57.4
		c-1.5-2.5-1.2-5.3,0.5-6.3l18.3-8.5C20.8,42.2,22.4,43,23.3,44.6 M70.6,58.4h0.2c0.2,0,0.4-0.1,0.4-0.2c0-0.2-0.1-0.2-0.3-0.2h-0.2
		V58.4z M70.6,59.3h-0.4v-1.6l0.6,0c0.3,0,0.4,0,0.6,0.1c0.1,0.1,0.2,0.2,0.2,0.3c0,0.2-0.1,0.3-0.3,0.4c0.2,0.1,0.3,0.2,0.3,0.4
		c0,0.3,0.1,0.3,0.1,0.4h-0.4c-0.1-0.1-0.1-0.2-0.1-0.4c0-0.2-0.1-0.2-0.3-0.2h-0.2L70.6,59.3L70.6,59.3z M70.9,57.2
		c-0.7,0-1.2,0.6-1.2,1.3c0,0.7,0.5,1.3,1.2,1.3c0.7,0,1.2-0.6,1.2-1.3C72.1,57.8,71.6,57.2,70.9,57.2L70.9,57.2z M70.9,56.9
		c0.9,0,1.6,0.7,1.6,1.6c0,0.9-0.7,1.6-1.6,1.6c-0.9,0-1.7-0.7-1.7-1.6C69.2,57.6,69.9,56.9,70.9,56.9L70.9,56.9z M70.9,56.9">
  </path>
 </g>
</svg>