<svg width="113" height="32" viewBox="0 0 113 32" fill="none" xmlns="http://www.w3.org/2000/svg">
<path fill-rule="evenodd" clip-rule="evenodd" d="M10.7259 19.7584C10.86 19.8342 11.035 19.8225 11.1517 19.7175L11.1575 19.7117C11.5191 19.3909 12.1783 18.8192 12.5458 18.51C12.6858 18.3934 12.6626 18.195 12.5458 18.0317C12.5123 17.9859 12.4787 17.9409 12.4452 17.8962C12.1464 17.4967 11.8633 17.1182 11.8633 16.3575V13.54C11.8633 13.4407 11.8639 13.342 11.8645 13.2441C11.8712 12.1689 11.8773 11.1847 11.0701 10.4309C10.3758 9.76587 9.22664 9.53253 8.3458 9.53253C6.625 9.53253 4.70581 10.1742 4.30334 12.2975C4.25663 12.525 4.42582 12.6417 4.57166 12.6767L6.32166 12.8692C6.48501 12.8634 6.60748 12.7 6.63668 12.5367C6.78835 11.8075 7.40088 11.4517 8.08917 11.4517C8.46244 11.4517 8.88257 11.5917 9.10417 11.9242C9.3336 12.258 9.3299 12.6991 9.32662 13.0973V13.1009C9.32619 13.1468 9.32576 13.1922 9.32576 13.2367V13.47C9.16199 13.4882 8.99038 13.5054 8.81364 13.5232C7.8576 13.619 6.75218 13.7299 5.92503 14.0942C4.7934 14.5784 4 15.5759 4 17.0459C4 18.9242 5.18418 19.8634 6.7066 19.8634C7.99005 19.8634 8.69586 19.56 9.6875 18.5509C9.73977 18.6261 9.78648 18.6952 9.83034 18.7601C10.0653 19.1076 10.2196 19.3356 10.7259 19.7584ZM9.3316 15.4024V14.9167C8.02494 14.9167 6.64252 15.1967 6.64252 16.7367C6.64252 17.5184 7.04498 18.0492 7.73912 18.0492C8.24668 18.0492 8.70754 17.7342 8.99337 17.2267C9.33303 16.6251 9.33246 16.0661 9.3316 15.4024Z" fill="black"/>
<path fill-rule="evenodd" clip-rule="evenodd" d="M34.8467 19.7175C34.7301 19.8225 34.5551 19.8342 34.4209 19.7584C33.9146 19.3356 33.7604 19.1076 33.5254 18.7601C33.4972 18.7184 33.4679 18.6749 33.4365 18.6292L33.3826 18.5509C32.3909 19.56 31.6851 19.8634 30.4017 19.8634C28.8793 19.8634 27.6951 18.9242 27.6951 17.0459C27.6951 15.5759 28.4885 14.5784 29.6201 14.0942C30.4472 13.7299 31.5527 13.619 32.5087 13.5232C32.6854 13.5054 32.8571 13.4882 33.0208 13.47V13.2367C33.0208 13.1916 33.0213 13.1457 33.0217 13.0991V13.0973C33.025 12.6991 33.0287 12.258 32.7992 11.9242C32.5776 11.5917 32.1575 11.4517 31.7842 11.4517C31.0959 11.4517 30.4834 11.8075 30.3317 12.5367C30.3026 12.7 30.1801 12.8634 30.0167 12.8692L28.2667 12.6767C28.1209 12.6417 27.9517 12.525 27.9984 12.2975C28.4009 10.1742 30.3201 9.53253 32.0409 9.53253C32.9217 9.53253 34.0709 9.76587 34.7651 10.4309C35.5723 11.1847 35.5662 12.1689 35.5595 13.2441C35.559 13.342 35.5584 13.4407 35.5584 13.54V16.3575C35.5584 17.1182 35.8415 17.4967 36.1403 17.8962C36.1738 17.9409 36.2074 17.9859 36.2408 18.0317C36.3576 18.195 36.3808 18.3934 36.235 18.51C35.8676 18.8192 35.2083 19.3909 34.8467 19.7117V19.7175ZM33.0267 15.3075V15.4024C33.0275 16.0661 33.0281 16.6251 32.6884 17.2267C32.4026 17.7342 31.9418 18.0492 31.44 18.0492C30.7459 18.0492 30.3434 17.5184 30.3434 16.7367C30.3434 15.1967 31.7258 14.9167 33.0325 14.9167V15.3075H33.0267Z" fill="black"/>
<path d="M14.2784 19.7409H16.0866V19.7467C16.2792 19.7467 16.4367 19.6009 16.4367 19.4142V14.4133C16.4359 13.3483 16.4346 11.9417 17.685 11.9417C18.8381 11.9417 18.8186 13.1708 18.8028 14.1692C18.8009 14.282 18.7992 14.3919 18.7992 14.4967V19.4142C18.7992 19.5892 18.9451 19.735 19.1259 19.7467H20.9342C21.1267 19.7467 21.2842 19.6009 21.2842 19.4142V14.4967L21.284 14.3704V14.3687C21.2828 13.8463 21.2812 13.1479 21.4534 12.7175C21.64 12.245 22.095 11.9534 22.5325 11.9534C23.0518 11.9534 23.4601 12.1284 23.5942 12.7525C23.6649 13.0543 23.6556 13.7485 23.6495 14.21V14.2351C23.6481 14.3343 23.6468 14.4217 23.6468 14.4909V19.4084C23.6468 19.5834 23.7926 19.7292 23.9733 19.7409H25.7759C25.9684 19.7409 26.1259 19.595 26.1259 19.4084V13.5517C26.1259 13.4976 26.1262 13.4431 26.1268 13.3883C26.1274 13.3332 26.1281 13.2778 26.1291 13.2222L26.1308 13.1152C26.1453 12.2364 26.1605 11.3103 25.6709 10.6409C25.1633 9.94086 24.3351 9.62586 23.5767 9.62586C22.515 9.62586 21.5175 10.1742 21.08 11.3467C20.5726 10.1742 19.8493 9.62586 18.735 9.62586C17.6209 9.62586 16.7926 10.1742 16.3551 11.3467H16.3201V10.1334C16.3084 9.9642 16.1684 9.83003 15.9934 9.8242H14.3076C14.1151 9.8242 13.9575 9.97003 13.9575 10.1567V19.4375C13.9692 19.6009 14.1092 19.7292 14.2784 19.7409Z" fill="black"/>
<path d="M37.7576 10.1334C37.7576 9.9292 37.9092 9.79503 38.0958 9.79503H44.0401C44.2325 9.79503 44.3842 9.93503 44.3842 10.1275V11.265C44.3842 11.4575 44.2208 11.7025 43.935 12.0992L40.855 16.4917C41.9984 16.4625 43.2058 16.6375 44.2442 17.2209C44.4776 17.355 44.5417 17.5475 44.5592 17.74V19.1575C44.5592 19.35 44.3434 19.5775 44.1217 19.4609C42.2901 18.5042 39.8633 18.3992 37.845 19.4725C37.6408 19.5834 37.4192 19.3617 37.4192 19.1634V17.8217C37.4192 17.6059 37.4192 17.2384 37.6408 16.9117L41.205 11.7959H38.1016C37.9092 11.7959 37.7576 11.6617 37.7576 11.4634V10.1334Z" fill="black"/>
<path d="M37.713 21.552C38.8157 21.4222 41.2198 21.1393 41.6482 21.6892H41.6541C42.0857 22.2434 41.17 24.5359 40.7615 25.5567C40.6332 25.8659 40.9015 25.9884 41.1817 25.755C43.0016 24.2325 43.4741 21.0417 43.1007 20.5809C42.7333 20.1259 39.5483 19.7292 37.6058 21.0942C37.3024 21.3042 37.355 21.5959 37.6875 21.555L37.713 21.552Z" fill="black"/>
<path d="M27.6891 27.1434C31.9241 27.1434 36.8417 25.8075 40.2366 23.305L40.2483 23.3109C40.8082 22.8967 40.3242 22.2725 39.7525 22.5175C35.9433 24.1275 31.8133 24.9092 28.0508 24.9092C22.4741 24.9092 17.0724 23.375 12.7091 20.8375C12.3242 20.6159 12.0442 21.0067 12.3592 21.2925C16.4075 24.95 21.7508 27.1434 27.6891 27.1434Z" fill="black"/>
<path fill-rule="evenodd" clip-rule="evenodd" d="M49.4942 9.62586C52.1776 9.62586 53.63 11.93 53.63 14.8584C53.63 17.7867 52.0259 19.9334 49.4942 19.9334C46.9624 19.9334 45.4283 17.6292 45.4283 14.7592C45.4283 11.8892 46.8808 9.62586 49.4942 9.62586ZM49.5117 11.5217C48.1817 11.5217 48.0942 13.3359 48.0942 14.4675V14.5085C48.0941 15.6565 48.0935 18.02 49.4942 18.02C50.9116 18.02 50.9642 16.0659 50.9642 14.8759C50.9642 14.0942 50.9291 13.155 50.6959 12.4142C50.4916 11.7725 50.0892 11.5159 49.5117 11.5159V11.5217Z" fill="black"/>
<path d="M55.3041 19.7409H57.1065V19.7292C57.2991 19.7292 57.4566 19.5834 57.4566 19.3967V14.4034C57.4566 13.7792 57.4916 13.2134 57.7424 12.6475C57.9408 12.1984 58.3491 11.9067 58.7866 11.9067C59.9389 11.9067 59.9281 13.1692 59.9197 14.1618C59.919 14.2445 59.9183 14.3253 59.9183 14.4034V19.4434C59.9358 19.6009 60.0699 19.7234 60.2391 19.735H62.0532C62.2282 19.735 62.3799 19.6067 62.3974 19.4434V13.6042C62.3974 12.7059 62.3974 11.4575 61.9249 10.7167C61.4175 9.91753 60.6241 9.62586 59.8133 9.62586C58.5649 9.62586 57.8591 10.2267 57.3516 11.4984H57.3166V10.0809C57.2816 9.94086 57.1533 9.83003 56.9957 9.8242H55.3217C55.1408 9.8242 54.9891 9.95836 54.9774 10.1275V19.4084C54.9774 19.5834 55.1233 19.7292 55.3041 19.7409Z" fill="black"/>
<path d="M105.045 19.6067L109 9.80669H107.057L105.331 14.31L105.298 14.3938L105.296 14.4C104.947 15.3071 104.609 16.1834 104.31 17.0925C104.007 16.165 103.657 15.2434 103.295 14.31L101.562 9.80669H91.8791V11.2825H94.7315V19.6067H96.5399V11.2825H99.1591L99.6181 9.83097L103.581 19.6067H105.045Z" fill="black"/>
<path d="M71.661 6.71503L72.0519 5.22169C71.0485 4.73169 69.4618 4.68503 68.4818 5.39086C67.7585 5.91003 67.2743 6.76753 67.2743 7.9692V9.76586H65.9502V11.2709H67.2743V19.6825H69.1468V11.265H71.1943L71.6785 9.76003H69.1468V8.10919C69.1468 6.27753 70.541 6.28336 71.661 6.71503Z" fill="#EF3835"/>
<path d="M75.1436 9.7892H73.2886V19.6825H75.1436V9.7892Z" fill="#EF3835"/>
<path d="M73.0086 6.5867C73.0086 5.92169 73.5452 5.37919 74.2161 5.37919C74.8811 5.37919 75.4236 5.92169 75.4236 6.5867C75.4236 7.25169 74.8811 7.79419 74.2161 7.79419C73.5511 7.79419 73.0086 7.25169 73.0086 6.5867Z" fill="#EF3835"/>
<path fill-rule="evenodd" clip-rule="evenodd" d="M90.3218 14.4442C90.3101 11.6267 88.9218 9.55003 86.2093 9.55003C83.876 9.55003 82.0968 11.475 82.0968 14.6717C82.0968 16.5675 82.8201 18.1367 83.946 18.9417C85.6493 20.26 88.5601 19.9392 90.106 18.9125L89.5518 17.6234C87.481 18.65 85.906 18.4284 84.8793 17.4309C84.2726 16.8417 84.0685 16.06 83.9693 15.1034H90.3276V14.4442H90.3218ZM83.9751 13.7267C83.9751 12.1984 84.9668 11.0142 86.2268 11.0142C87.6501 11.0142 88.4143 12.3909 88.4143 13.715L83.9751 13.7267Z" fill="#EF3835"/>
<path d="M78.5668 11.0027L78.3752 9.78336H76.8002V19.6767H78.6494V12.5075C79.7111 11.4284 80.7261 10.845 81.8811 11.4809L82.5169 9.83586C81.3634 9.22416 79.8375 9.54337 78.5668 11.0027Z" fill="#EF3835"/>
</svg>
