<svg width="96" height="32" viewBox="0 0 96 32" fill="none" xmlns="http://www.w3.org/2000/svg">
<g clip-path="url(#clip0_3221_204893)">
<path d="M88.3766 -1.80703e-05H7.89651C7.60315 -1.80703e-05 7.31331 -1.80703e-05 7.02073 0.00158193C6.77581 0.00318193 6.53284 0.00782993 6.28557 0.0117419C5.74838 0.0180634 5.21245 0.065323 4.68245 0.15311C4.15319 0.242808 3.64051 0.411915 3.16174 0.65471C2.68357 0.899559 2.24664 1.21772 1.86682 1.59764C1.48501 1.97649 1.16674 2.4144 0.924248 2.89451C0.681089 3.37367 0.512481 3.88713 0.424248 4.41717C0.335177 4.94653 0.287247 5.482 0.280888 6.01877C0.273464 6.26405 0.27268 6.51014 0.268768 6.75545V25.2469C0.27268 25.4953 0.273464 25.7359 0.280888 25.9844C0.287249 26.5211 0.335179 27.0566 0.424248 27.5859C0.512237 28.1162 0.680855 28.63 0.924248 29.1093C1.16663 29.5879 1.48494 30.024 1.86682 30.4008C2.2452 30.7824 2.68241 31.1008 3.16174 31.3437C3.6405 31.5872 4.15313 31.7573 4.68245 31.8484C5.21254 31.9355 5.74841 31.9827 6.28557 31.9898C6.53284 31.9953 6.77581 31.9984 7.02073 31.9984C7.3133 32 7.60317 32 7.89651 32H88.3766C88.6641 32 88.9563 32 89.2438 31.9984C89.4875 31.9984 89.7375 31.9953 89.9813 31.9898C90.5174 31.9831 91.0523 31.9358 91.5813 31.8484C92.1123 31.7567 92.6268 31.5866 93.1079 31.3437C93.5868 31.1006 94.0236 30.7823 94.4016 30.4008C94.7825 30.0226 95.1015 29.5868 95.3469 29.1093C95.5885 28.6297 95.7555 28.1159 95.8422 27.5859C95.9314 27.0565 95.981 26.5212 95.9907 25.9844C95.9938 25.7359 95.9938 25.4953 95.9938 25.2469C96 24.9562 96 24.6672 96 24.3718V7.62889C96 7.33592 96 7.04529 95.9938 6.75545C95.9938 6.51014 95.9938 6.26405 95.9907 6.01873C95.981 5.48192 95.9314 4.94657 95.8422 4.41713C95.7552 3.88741 95.5882 3.37398 95.3469 2.89448C94.8531 1.93214 94.07 1.1488 93.1079 0.654638C92.6268 0.412436 92.1123 0.243374 91.5813 0.153038C91.0524 0.0648642 90.5175 0.0175881 89.9813 0.0116299C89.7375 0.00772593 89.4875 0.00303793 89.2438 0.00147793C88.9563 -0.00012207 88.6641 -0.00012207 88.3766 -0.00012207V-1.80703e-05Z" fill="#A6A6A6"/>
<path d="M7.02463 31.3C6.78089 31.3 6.54303 31.2969 6.3012 31.2915C5.80023 31.2849 5.30042 31.2413 4.80589 31.161C4.34476 31.0816 3.89805 30.9338 3.4805 30.7227C3.06677 30.5132 2.68942 30.2386 2.3629 29.9094C2.03165 29.584 1.75587 29.2066 1.54649 28.7922C1.3348 28.375 1.1883 27.9279 1.11209 27.4664C1.02979 26.9705 0.985262 26.4691 0.97889 25.9664C0.973818 25.7977 0.967178 25.2359 0.967178 25.2359V6.75548C0.967178 6.75548 0.97425 6.20236 0.97893 6.03985C0.985031 5.538 1.0293 5.03733 1.11135 4.5422C1.18771 4.07941 1.33432 3.63101 1.54612 3.21252C1.75473 2.79837 2.02898 2.4207 2.35823 2.09416C2.68712 1.76451 3.06568 1.4885 3.48011 1.27618C3.8967 1.06569 4.34257 0.918998 4.80276 0.841028C5.29892 0.759881 5.80046 0.716009 6.30317 0.70978L7.02503 0.700012H89.2399L89.9703 0.710172C90.4685 0.716092 90.9655 0.759572 91.4571 0.840244C91.9219 0.919192 92.3724 1.0669 92.7938 1.27852C93.624 1.7064 94.2996 2.38334 94.7258 3.21447C94.9342 3.63007 95.0786 4.07482 95.1539 4.5336C95.237 5.03281 95.2835 5.5374 95.293 6.04337C95.2953 6.26993 95.2953 6.51329 95.2953 6.75548C95.3016 7.05548 95.3016 7.34103 95.3016 7.62892V24.3719C95.3016 24.6625 95.3016 24.9461 95.2953 25.232C95.2953 25.4922 95.2953 25.7305 95.2922 25.9758C95.2829 26.4727 95.2372 26.9683 95.1555 27.4586C95.0808 27.9234 94.9351 28.374 94.7235 28.7946C94.5126 29.2045 94.2384 29.5786 93.911 29.9031C93.5842 30.2342 93.2062 30.5104 92.7915 30.7211C92.3713 30.9339 91.9214 31.0822 91.4571 31.161C90.9626 31.2417 90.4627 31.2854 89.9617 31.2915C89.7274 31.2969 89.482 31.3 89.2438 31.3L88.3766 31.3016L7.02463 31.3Z" fill="black"/>
<path d="M20.0839 16.2405C20.0925 15.5728 20.2698 14.9181 20.5995 14.3373C20.9291 13.7566 21.4002 13.2686 21.9691 12.9189C21.6077 12.4028 21.131 11.978 20.5767 11.6784C20.0224 11.3787 19.406 11.2125 18.7762 11.1928C17.4328 11.0517 16.1304 11.9966 15.4459 11.9966C14.7481 11.9966 13.6941 11.2068 12.5591 11.2301C11.8249 11.2538 11.1095 11.4673 10.4823 11.8498C9.85525 12.2322 9.33791 12.7706 8.98073 13.4124C7.43353 16.0911 8.5876 20.028 10.0697 22.1933C10.8112 23.2535 11.6778 24.4379 12.8118 24.3959C13.9214 24.3499 14.3359 23.6883 15.6753 23.6883C17.0023 23.6883 17.3911 24.3959 18.5481 24.3692C19.7388 24.3499 20.489 23.3042 21.2045 22.2339C21.7373 21.4784 22.1473 20.6434 22.4193 19.7599C21.7275 19.4673 21.1372 18.9776 20.7219 18.3517C20.3066 17.7259 20.0847 16.9916 20.0839 16.2405Z" fill="white"/>
<path d="M17.8986 9.76872C18.5478 8.98936 18.8676 7.98761 18.7902 6.97623C17.7983 7.0804 16.8821 7.55445 16.2241 8.30391C15.9024 8.67005 15.656 9.096 15.499 9.55741C15.342 10.0188 15.2775 10.5067 15.3091 10.993C15.8053 10.9981 16.2961 10.8906 16.7446 10.6785C17.1931 10.4665 17.5877 10.1554 17.8986 9.76872Z" fill="white"/>
<path d="M34.1106 21.7117H30.3239L29.4145 24.3969H27.8106L31.3973 14.4625H33.0637L36.6504 24.3969H35.0192L34.1106 21.7117ZM30.716 20.4727H33.7176L32.238 16.1149H32.1965L30.716 20.4727Z" fill="white"/>
<path d="M44.3965 20.7758C44.3965 23.0266 43.1918 24.4727 41.3739 24.4727C40.9133 24.4967 40.4553 24.3907 40.0523 24.1666C39.6493 23.9424 39.3175 23.6094 39.095 23.2055H39.0605V26.793H37.5738V17.1539H39.0129V18.3586H39.0403C39.273 17.9566 39.6104 17.6253 40.0165 17.3998C40.4226 17.1743 40.8823 17.0631 41.3465 17.0781C43.1848 17.0781 44.3965 18.5312 44.3965 20.7758ZM42.8684 20.7758C42.8684 19.3094 42.1106 18.3453 40.9543 18.3453C39.8184 18.3453 39.0543 19.3297 39.0543 20.7758C39.0543 22.2352 39.8184 23.2125 40.9543 23.2125C42.1106 23.2125 42.8684 22.2555 42.8684 20.7758Z" fill="white"/>
<path d="M52.3684 20.7758C52.3684 23.0266 51.1637 24.4727 49.3457 24.4727C48.8852 24.4968 48.4272 24.3907 48.0242 24.1666C47.6211 23.9425 47.2894 23.6094 47.0668 23.2055H47.0324V26.793H45.5457V17.1539H46.9848V18.3586H47.0121C47.2449 17.9566 47.5823 17.6253 47.9884 17.3998C48.3945 17.1743 48.8541 17.0632 49.3184 17.0781C51.1567 17.0781 52.3684 18.5313 52.3684 20.7758ZM50.8403 20.7758C50.8403 19.3094 50.0824 18.3453 48.9262 18.3453C47.7903 18.3453 47.0262 19.3297 47.0262 20.7758C47.0262 22.2352 47.7903 23.2125 48.9262 23.2125C50.0824 23.2125 50.8403 22.2555 50.8403 20.7758H50.8403Z" fill="white"/>
<path d="M57.6371 21.6289C57.7473 22.6141 58.7043 23.2609 60.0121 23.2609C61.2653 23.2609 62.1668 22.614 62.1668 21.7258C62.1668 20.9547 61.6231 20.493 60.3356 20.1765L59.0481 19.8664C57.2239 19.4258 56.377 18.5726 56.377 17.1883C56.377 15.4742 57.8707 14.2968 59.9918 14.2968C62.091 14.2968 63.5301 15.4742 63.5785 17.1883H62.0777C61.9879 16.1968 61.1684 15.5984 59.9707 15.5984C58.7731 15.5984 57.9535 16.2039 57.9535 17.0851C57.9535 17.7875 58.477 18.2008 59.7574 18.5171L60.852 18.7859C62.8902 19.2679 63.7371 20.0867 63.7371 21.5398C63.7371 23.3984 62.2566 24.5624 59.902 24.5624C57.6988 24.5624 56.2113 23.4257 56.1152 21.6288L57.6371 21.6289Z" fill="white"/>
<path d="M66.9457 15.4398V17.1539H68.3231V18.3313H66.9457V22.3242C66.9457 22.9445 67.2215 23.2336 67.827 23.2336C67.9905 23.2307 68.1537 23.2193 68.316 23.1992V24.3695C68.0438 24.4204 67.7671 24.4434 67.4903 24.4383C66.0239 24.4383 65.452 23.8875 65.452 22.4828V18.3313H64.3989V17.1539H65.452V15.4398H66.9457Z" fill="white"/>
<path d="M69.1208 20.7758C69.1208 18.4969 70.4629 17.0648 72.5559 17.0648C74.6559 17.0648 75.9919 18.4968 75.9919 20.7758C75.9919 23.0609 74.663 24.4867 72.5559 24.4867C70.4496 24.4867 69.1208 23.0609 69.1208 20.7758ZM74.477 20.7758C74.477 19.2125 73.7606 18.2898 72.5559 18.2898C71.3512 18.2898 70.6356 19.2195 70.6356 20.7758C70.6356 22.3453 71.3512 23.2609 72.5559 23.2609C73.7606 23.2609 74.477 22.3453 74.477 20.7758H74.477Z" fill="white"/>
<path d="M77.2176 17.1539H78.6356V18.3867H78.67C78.7659 18.0017 78.9915 17.6614 79.3087 17.4231C79.626 17.1848 80.0156 17.063 80.4122 17.0781C80.5835 17.0775 80.7543 17.0961 80.9215 17.1336V18.5242C80.7052 18.4581 80.4796 18.4278 80.2535 18.4344C80.0376 18.4256 79.8222 18.4637 79.6224 18.546C79.4225 18.6283 79.2428 18.7529 79.0956 18.9112C78.9484 19.0695 78.8373 19.2578 78.7697 19.4632C78.7022 19.6685 78.6799 19.886 78.7043 20.1008V24.3969H77.2176L77.2176 17.1539Z" fill="white"/>
<path d="M87.7762 22.2695C87.5762 23.5844 86.2957 24.4867 84.6574 24.4867C82.5504 24.4867 81.2426 23.075 81.2426 20.8102C81.2426 18.5383 82.5574 17.0648 84.5949 17.0648C86.5989 17.0648 87.859 18.4414 87.859 20.6375V21.1469H82.7434V21.2367C82.7198 21.5033 82.7531 21.7718 82.8413 22.0245C82.9294 22.2772 83.0703 22.5082 83.2546 22.7022C83.4389 22.8963 83.6624 23.0489 83.9102 23.1499C84.1579 23.251 84.4244 23.2981 84.6918 23.2883C85.0432 23.3212 85.3957 23.2398 85.6971 23.0563C85.9985 22.8727 86.2325 22.5968 86.3645 22.2695L87.7762 22.2695ZM82.7504 20.1078H86.3715C86.3849 19.8681 86.3485 19.6283 86.2648 19.4033C86.181 19.1784 86.0517 18.9731 85.8849 18.8005C85.7181 18.6279 85.5174 18.4916 85.2954 18.4003C85.0734 18.3089 84.8349 18.2644 84.5949 18.2695C84.3528 18.2681 84.1128 18.3146 83.8888 18.4064C83.6648 18.4982 83.4611 18.6334 83.2897 18.8044C83.1182 18.9753 82.9822 19.1784 82.8897 19.4022C82.7971 19.6259 82.7498 19.8657 82.7504 20.1078V20.1078Z" fill="white"/>
<path d="M30.5297 6.98482C30.8414 6.96245 31.1542 7.00954 31.4455 7.12268C31.7368 7.23583 31.9993 7.41221 32.2142 7.63911C32.429 7.86601 32.5909 8.13777 32.688 8.43479C32.7851 8.73181 32.8151 9.04668 32.7758 9.35669C32.7758 10.8817 31.9516 11.7583 30.5297 11.7583H28.8055V6.98482H30.5297ZM29.5469 11.0832H30.4469C30.6696 11.0965 30.8925 11.06 31.0993 10.9763C31.3062 10.8926 31.4917 10.7639 31.6425 10.5994C31.7933 10.435 31.9056 10.239 31.971 10.0257C32.0365 9.81237 32.0536 9.58716 32.0211 9.36642C32.0513 9.14655 32.0324 8.92273 31.9659 8.711C31.8995 8.49927 31.787 8.30487 31.6365 8.14172C31.486 7.97858 31.3014 7.85073 31.0957 7.76734C30.89 7.68396 30.6685 7.64709 30.4469 7.65939H29.5469V11.0832Z" fill="white"/>
<path d="M33.6133 9.95547C33.5907 9.71873 33.6177 9.47988 33.6928 9.25422C33.7679 9.02857 33.8893 8.82109 34.0492 8.64511C34.2092 8.46912 34.4042 8.32851 34.6216 8.23229C34.8391 8.13607 35.0743 8.08636 35.3121 8.08636C35.5499 8.08636 35.7851 8.13607 36.0026 8.23229C36.2201 8.32851 36.4151 8.46912 36.575 8.64511C36.735 8.82109 36.8564 9.02857 36.9315 9.25422C37.0065 9.47988 37.0336 9.71873 37.011 9.95547C37.034 10.1924 37.0073 10.4316 36.9324 10.6576C36.8575 10.8837 36.7362 11.0915 36.5762 11.2679C36.4162 11.4442 36.2211 11.5851 36.0034 11.6815C35.7857 11.778 35.5502 11.8278 35.3121 11.8278C35.074 11.8278 34.8386 11.778 34.6209 11.6815C34.4032 11.5851 34.2081 11.4442 34.0481 11.2679C33.8881 11.0915 33.7667 10.8837 33.6919 10.6576C33.617 10.4316 33.5902 10.1924 33.6133 9.95547ZM36.2797 9.95547C36.2797 9.17461 35.9289 8.71797 35.3133 8.71797C34.6953 8.71797 34.3477 9.17461 34.3477 9.95548C34.3477 10.7426 34.6954 11.1957 35.3133 11.1957C35.9289 11.1957 36.2797 10.7395 36.2797 9.95547H36.2797Z" fill="white"/>
<path d="M41.5274 11.7582H40.7899L40.0453 9.10507H39.9891L39.2477 11.7582H38.5172L37.5243 8.15585H38.2453L38.8907 10.9047H38.9438L39.6844 8.15585H40.3664L41.1071 10.9047H41.1633L41.8055 8.15585H42.5164L41.5274 11.7582Z" fill="white"/>
<path d="M43.3516 8.15585H44.036V8.72811H44.0891C44.1792 8.52257 44.3312 8.35028 44.5239 8.23523C44.7166 8.12019 44.9404 8.06813 45.1641 8.08631C45.3394 8.07313 45.5154 8.09956 45.679 8.16364C45.8427 8.22771 45.9899 8.3278 46.1096 8.45647C46.2294 8.58515 46.3186 8.73912 46.3708 8.90697C46.423 9.07483 46.4367 9.25227 46.411 9.42615V11.7582H45.7V9.60468C45.7 9.02577 45.4485 8.73788 44.9227 8.73788C44.8037 8.73234 44.6849 8.75259 44.5744 8.79725C44.464 8.84192 44.3645 8.90994 44.2828 8.99664C44.2011 9.08335 44.1391 9.1867 44.1011 9.2996C44.0631 9.41251 44.0499 9.5323 44.0625 9.65077V11.7582H43.3516L43.3516 8.15585Z" fill="white"/>
<path d="M47.5438 6.7496H48.2547V11.7582H47.5438V6.7496Z" fill="white"/>
<path d="M49.243 9.95547C49.2204 9.71872 49.2475 9.47986 49.3226 9.25419C49.3976 9.02853 49.5191 8.82105 49.679 8.64506C49.839 8.46907 50.034 8.32845 50.2515 8.23223C50.469 8.13601 50.7042 8.0863 50.942 8.0863C51.1798 8.0863 51.4151 8.13601 51.6325 8.23223C51.85 8.32845 52.045 8.46907 52.205 8.64506C52.365 8.82105 52.4864 9.02853 52.5615 9.25419C52.6366 9.47986 52.6637 9.71872 52.641 9.95547C52.6641 10.1925 52.6373 10.4316 52.5624 10.6577C52.4875 10.8837 52.3662 11.0915 52.2061 11.2679C52.0461 11.4442 51.851 11.5851 51.6333 11.6815C51.4156 11.7779 51.1801 11.8277 50.942 11.8277C50.7039 11.8277 50.4684 11.7779 50.2507 11.6815C50.033 11.5851 49.8379 11.4442 49.6779 11.2679C49.5179 11.0915 49.3965 10.8837 49.3216 10.6577C49.2467 10.4316 49.2199 10.1925 49.243 9.95547ZM51.9094 9.95547C51.9094 9.17462 51.5586 8.71798 50.943 8.71798C50.325 8.71798 49.9774 9.17462 49.9774 9.95548C49.9774 10.7426 50.325 11.1957 50.943 11.1957C51.5586 11.1957 51.9094 10.7395 51.9094 9.95547H51.9094Z" fill="white"/>
<path d="M53.3895 10.7395C53.3895 10.091 53.8723 9.71719 54.7293 9.66406L55.7051 9.60781V9.29688C55.7051 8.91641 55.4535 8.70157 54.9676 8.70157C54.5707 8.70157 54.2957 8.84727 54.2168 9.10196H53.5285C53.6012 8.48321 54.1832 8.08633 55.0004 8.08633C55.9035 8.08633 56.4129 8.53593 56.4129 9.29688V11.7582H55.7285V11.252H55.6723C55.5581 11.4336 55.3978 11.5816 55.2077 11.681C55.0176 11.7803 54.8045 11.8275 54.5903 11.8176C54.439 11.8333 54.2862 11.8172 54.1416 11.7702C53.997 11.7232 53.8638 11.6465 53.7507 11.5449C53.6375 11.4433 53.547 11.3192 53.4847 11.1805C53.4225 11.0417 53.3901 10.8915 53.3895 10.7395ZM55.7051 10.4316V10.1305L54.8254 10.1867C54.3293 10.2199 54.1043 10.3887 54.1043 10.7062C54.1043 11.0305 54.3856 11.2191 54.7723 11.2191C54.8856 11.2306 55.0001 11.2192 55.1089 11.1855C55.2177 11.1518 55.3186 11.0966 55.4057 11.0231C55.4927 10.9497 55.564 10.8594 55.6155 10.7578C55.6669 10.6562 55.6974 10.5453 55.7051 10.4316Z" fill="white"/>
<path d="M57.3473 9.95547C57.3473 8.81719 57.9324 8.0961 58.8426 8.0961C59.0677 8.08573 59.2912 8.13965 59.4868 8.25156C59.6824 8.36348 59.8421 8.52876 59.9473 8.7281H60.0004V6.7496H60.7114V11.7582H60.0301V11.1891H59.9739C59.8606 11.387 59.6953 11.5503 59.4959 11.6611C59.2965 11.7718 59.0706 11.826 58.8426 11.8176C57.9262 11.8176 57.3473 11.0965 57.3473 9.95547ZM58.0817 9.95547C58.0817 10.7195 58.4418 11.1793 59.0442 11.1793C59.6434 11.1793 60.0137 10.7129 60.0137 9.9586C60.0137 9.20782 59.6395 8.73477 59.0442 8.73477C58.4457 8.73477 58.0817 9.19766 58.0817 9.95547H58.0817Z" fill="white"/>
<path d="M63.6528 9.95547C63.6301 9.71873 63.6572 9.47988 63.7323 9.25422C63.8073 9.02857 63.9288 8.82109 64.0887 8.64511C64.2487 8.46912 64.4436 8.32851 64.6611 8.23229C64.8786 8.13607 65.1138 8.08636 65.3516 8.08636C65.5894 8.08636 65.8246 8.13607 66.0421 8.23229C66.2596 8.32851 66.4545 8.46912 66.6145 8.64511C66.7744 8.82109 66.8958 9.02857 66.9709 9.25422C67.046 9.47988 67.0731 9.71873 67.0504 9.95547C67.0735 10.1924 67.0467 10.4316 66.9719 10.6576C66.897 10.8837 66.7757 11.0915 66.6157 11.2679C66.4557 11.4442 66.2606 11.5851 66.0429 11.6815C65.8252 11.778 65.5897 11.8278 65.3516 11.8278C65.1135 11.8278 64.878 11.778 64.6603 11.6815C64.4426 11.5851 64.2475 11.4442 64.0875 11.2679C63.9275 11.0915 63.8062 10.8837 63.7313 10.6576C63.6564 10.4316 63.6297 10.1924 63.6528 9.95547ZM66.3192 9.95547C66.3192 9.17461 65.9684 8.71797 65.3528 8.71797C64.7348 8.71797 64.3872 9.17461 64.3872 9.95548C64.3872 10.7426 64.7348 11.1957 65.3528 11.1957C65.9684 11.1957 66.3192 10.7395 66.3192 9.95547Z" fill="white"/>
<path d="M68.0043 8.15585H68.6887V8.72811H68.7418C68.8319 8.52257 68.9839 8.35028 69.1766 8.23523C69.3693 8.12019 69.5931 8.06813 69.8168 8.08631C69.9921 8.07313 70.1681 8.09956 70.3318 8.16364C70.4955 8.22771 70.6426 8.3278 70.7624 8.45647C70.8821 8.58515 70.9714 8.73912 71.0235 8.90697C71.0757 9.07483 71.0894 9.25227 71.0637 9.42615V11.7582H70.3528V9.60468C70.3528 9.02577 70.1012 8.73788 69.5754 8.73788C69.4564 8.73234 69.3376 8.75259 69.2272 8.79725C69.1167 8.84192 69.0172 8.90994 68.9355 8.99664C68.8538 9.08335 68.7918 9.1867 68.7538 9.2996C68.7158 9.41251 68.7026 9.5323 68.7153 9.65077V11.7582H68.0043V8.15585Z" fill="white"/>
<path d="M75.0809 7.25897V8.17225H75.8614V8.77108H75.0809V10.6234C75.0809 11.0008 75.2364 11.166 75.5903 11.166C75.6809 11.1657 75.7714 11.1602 75.8614 11.1496V11.7418C75.7337 11.7646 75.6043 11.7768 75.4746 11.7781C74.684 11.7781 74.3692 11.5 74.3692 10.8055V8.77105H73.7973V8.17222H74.3692V7.25897H75.0809Z" fill="white"/>
<path d="M76.8324 6.7496H77.5371V8.73476H77.5934C77.6879 8.52731 77.8441 8.35403 78.0406 8.23856C78.2372 8.12308 78.4646 8.07101 78.6918 8.08945C78.8661 8.07996 79.0405 8.10907 79.2023 8.17471C79.3641 8.24034 79.5094 8.34088 79.6279 8.46915C79.7464 8.59742 79.8352 8.75026 79.8878 8.91677C79.9404 9.08328 79.9557 9.25935 79.9324 9.43242V11.7582H79.2208V9.6078C79.2208 9.03241 78.9528 8.741 78.4504 8.741C78.3283 8.73098 78.2053 8.74778 78.0903 8.79022C77.9753 8.83267 77.8709 8.89973 77.7845 8.98672C77.6982 9.07371 77.6318 9.17852 77.5902 9.29384C77.5485 9.40915 77.5326 9.53216 77.5434 9.65428V11.7582H76.8325L76.8324 6.7496Z" fill="white"/>
<path d="M84.0778 10.7855C83.9812 11.1148 83.7719 11.3996 83.4865 11.5901C83.2012 11.7806 82.8579 11.8647 82.5168 11.8277C82.2795 11.834 82.0436 11.7885 81.8256 11.6945C81.6076 11.6005 81.4127 11.4602 81.2544 11.2833C81.0961 11.1063 80.9781 10.8971 80.9088 10.67C80.8394 10.443 80.8203 10.2035 80.8528 9.96837C80.8212 9.73246 80.8406 9.49251 80.9098 9.26477C80.979 9.03704 81.0963 8.82682 81.2538 8.64836C81.4113 8.4699 81.6053 8.32737 81.8227 8.2304C82.04 8.13343 82.2757 8.0843 82.5137 8.08633C83.516 8.08633 84.1207 8.77113 84.1207 9.90233V10.1504H81.577V10.1902C81.5658 10.3224 81.5825 10.4555 81.6258 10.5809C81.6691 10.7063 81.7381 10.8213 81.8284 10.9184C81.9187 11.0156 82.0284 11.0928 82.1503 11.1451C82.2722 11.1975 82.4037 11.2237 82.5363 11.2222C82.7064 11.2427 82.8787 11.212 83.0313 11.1343C83.1839 11.0565 83.3099 10.9351 83.3934 10.7855L84.0778 10.7855ZM81.577 9.62461H83.3965C83.4054 9.50371 83.389 9.38227 83.3483 9.2681C83.3075 9.15392 83.2433 9.04954 83.1598 8.96165C83.0763 8.87377 82.9753 8.80432 82.8634 8.75778C82.7514 8.71124 82.631 8.68863 82.5098 8.69141C82.3868 8.68987 82.2648 8.71295 82.1509 8.75931C82.037 8.80567 81.9335 8.87435 81.8466 8.96132C81.7597 9.0483 81.691 9.15179 81.6447 9.26571C81.5984 9.37962 81.5754 9.50166 81.577 9.62461H81.577Z" fill="white"/>
</g>
<defs>
<clipPath id="clip0_3221_204893">
<rect width="95.7312" height="32" fill="white" transform="translate(0.268768)"/>
</clipPath>
</defs>
</svg>
