<svg viewBox="0 0 66 22" fill="#5C2F88" xmlns="http://www.w3.org/2000/svg">
<path fill-rule="evenodd" clip-rule="evenodd" d="M17.8585 20.7579H11.8044L6.99802 14.1485H5.38147V20.7437H0.0460815V0.929993H7.68931C12.0957 0.929993 15.6921 3.89923 15.6921 7.55237C15.6921 9.7803 14.3133 11.7703 12.215 12.9879L17.8585 20.7579ZM10.3563 7.55237C10.3563 5.70945 8.86022 4.22545 7.03074 4.22545H5.38147V10.8498H7.03074C8.86022 10.8498 10.3563 9.36466 10.3563 7.55237Z" fill="current"/>
<path fill-rule="evenodd" clip-rule="evenodd" d="M32.088 12.9883C32.088 17.4762 28.4048 21.07 23.8756 21.07C19.3481 21.07 15.6921 17.4762 15.6921 12.9883C15.6921 8.50389 19.3481 4.90802 23.8756 4.90802C28.4048 4.90802 32.088 8.50389 32.088 12.9883ZM23.8756 8.74138C22.4667 8.74138 21.2681 10.6392 21.2681 12.9883C21.2681 15.3375 22.4667 17.2379 23.8756 17.2379C25.3174 17.2379 26.514 15.3374 26.514 12.9883C26.514 10.6392 25.3174 8.74138 23.8756 8.74138Z" fill="current"/>
<path fill-rule="evenodd" clip-rule="evenodd" d="M44.6086 5.23676L38.4624 11.3261V5.21661H33.1281V20.7437H38.4624V14.4453L44.879 20.7437H51.5932L43.4393 12.6628L50.1932 5.97296V15.1873C50.1932 18.2465 52.0499 21.0699 56.7256 21.0699C58.9452 21.0699 60.9822 19.8224 61.9724 18.6938L64.3707 20.7435H65.5095V5.23676H60.1749V13.3155V15.2767C59.5743 16.3156 58.7372 16.9688 57.4436 16.9688C56.1312 16.9688 55.529 16.1978 55.529 13.7317V13.081V5.23676H44.6086Z" fill="current"/>
</svg>
